<svg width="1538" height="389" viewBox="0 0 1538 389" fill="none" xmlns="http://www.w3.org/2000/svg">
<path d="M713.433 287.856H646.651C641.562 287.856 637.174 283.358 637.174 278.241V108.405C637.174 103.547 641.715 98.7424 646.783 98.7424H714.198C743.545 98.7424 766.618 107.143 783.298 124.076C800.057 141.093 808.378 164.257 808.378 193.429C808.378 222.601 799.93 245.632 783.039 262.523C766.492 279.413 743.291 287.856 713.433 287.856ZM685.026 144.552V242.052H715.735C729.558 242.052 740.134 237.358 747.468 227.976C754.976 218.419 758.73 206.819 758.73 193.17C758.73 179.695 754.976 168.18 747.468 158.623C740.134 149.24 729.558 144.552 715.735 144.552H685.026ZM982.1 287.856C972.058 287.856 962.021 287.856 951.983 287.856C947.485 287.856 940.811 283.432 939.459 278.405L931.471 253.309H871.331L863.263 278.062C861.489 283.505 855.539 287.856 850.602 287.856C840.522 287.856 830.438 287.856 820.358 287.856C815.506 287.856 812.38 283.194 814.181 278.268C834.878 221.624 855.571 164.985 876.268 108.347C878.042 103.479 884.684 98.7424 889.537 98.7424C898.022 98.7424 906.507 98.7424 914.986 98.7424C919.818 98.7424 925.916 103.278 927.769 108.479C947.902 165.033 968.024 221.587 988.146 278.141C989.931 283.146 986.895 287.856 982.1 287.856ZM883.359 211.856H919.95L902.04 155.809L883.359 211.856ZM1156.36 287.856C1144.48 287.856 1132.6 287.856 1120.72 287.856C1115.84 287.856 1108.59 283.094 1106.04 278.294L1077.85 225.161H1059.17C1059.17 242.834 1059.17 260.506 1059.17 278.178C1059.17 283.152 1054.44 287.856 1049.66 287.856C1040.08 287.856 1030.5 287.856 1020.91 287.856C1016.13 287.856 1011.31 283.083 1011.31 278.278C1011.31 221.613 1011.31 164.948 1011.31 108.283C1011.31 103.516 1016.12 98.7424 1020.83 98.7424H1090.13C1112.82 98.7424 1130.05 104.714 1141.83 116.657C1153.59 128.427 1159.48 143.353 1159.48 161.437C1159.48 173.724 1156.54 184.854 1150.65 194.833C1144.77 204.818 1136.2 212.452 1124.93 217.738C1136.7 237.892 1148.47 258.045 1160.24 278.199C1163.19 283.247 1161.2 287.856 1156.36 287.856ZM1089.62 142.503H1059.17V183.449H1087.83C1097.38 183.962 1104.04 180.635 1107.79 173.465C1111.54 166.3 1111.54 159.177 1107.79 152.097C1104.04 145.016 1097.98 141.822 1089.62 142.503ZM1296.47 98.7424C1308.78 98.7424 1321.09 98.7424 1333.41 98.7424C1338.24 98.7424 1340.43 103.552 1337.87 108.405L1276.69 224.391C1276.69 242.353 1276.69 260.316 1276.69 278.273C1276.69 283.078 1271.93 287.856 1267.1 287.856C1257.66 287.856 1248.21 287.856 1238.77 287.856C1233.74 287.856 1229.09 283.072 1229.09 278.22V224.391C1208.94 185.741 1188.79 147.091 1168.63 108.442C1166.15 103.679 1168.35 98.7424 1173.19 98.7424C1185.54 98.7424 1197.89 98.7424 1210.23 98.7424C1215.09 98.7424 1222.06 103.516 1224.26 108.363L1252.89 171.163C1262.73 150.217 1272.57 129.277 1282.42 108.331C1284.64 103.6 1291.69 98.7424 1296.47 98.7424ZM1508.8 262.781C1490.03 281.547 1466.57 290.929 1438.42 290.929C1410.27 290.929 1386.64 281.547 1367.54 262.781C1348.77 244.011 1339.39 220.895 1339.39 193.429C1339.39 165.962 1348.85 142.756 1367.79 123.822C1386.73 104.883 1410.19 95.416 1438.17 95.416C1466.32 95.416 1489.86 104.883 1508.8 123.822C1527.74 142.756 1537.21 165.962 1537.21 193.429C1537.21 220.726 1527.74 243.842 1508.8 262.781ZM1438.17 243.589C1452.16 243.589 1463.93 238.81 1473.48 229.253C1483.04 219.702 1487.81 207.674 1487.81 193.17C1487.48 178.502 1482.53 166.474 1472.97 157.086C1463.42 147.535 1451.81 142.756 1438.17 142.756C1424.35 142.756 1412.66 147.619 1403.11 157.345C1393.55 166.897 1388.78 178.84 1388.78 193.17C1388.78 207.674 1393.55 219.702 1403.11 229.253C1412.66 238.81 1424.35 243.589 1438.17 243.589Z" fill="black"/>
<path fill-rule="evenodd" clip-rule="evenodd" d="M47.6893 0H342.519C449.381 0 536.817 87.4316 536.817 194.299C536.817 301.161 449.381 388.598 342.519 388.598H47.6893C21.8967 388.598 0.797852 367.493 0.797852 341.701V46.897C0.797852 21.1042 21.8967 0 47.6893 0ZM117.597 98.7255H341.205C393.244 98.7255 435.822 141.303 435.822 193.343C435.822 245.377 393.234 287.955 341.205 287.955H251.788C249.121 287.955 246.724 288.637 244.602 290.242L184.383 335.798C180.629 338.638 175.787 338.881 171.563 336.743C167.339 334.604 164.668 330.586 164.662 325.85L164.657 315.897C164.657 302.687 152.075 287.887 137.233 287.876C130.833 287.871 124.434 287.866 118.035 287.866C102.126 287.866 89.9452 275.658 89.9452 260.056V126.715C89.9452 111.313 102.195 98.7255 117.597 98.7255Z" fill="#008CCC"/>
</svg>